<svg xmlns="http://www.w3.org/2000/svg" width="23" height="23" viewBox="0 0 23 23">
  <g id="Layer_2" data-name="Layer 2" transform="translate(-0.467)">
    <g id="invisible_box" data-name="invisible box" transform="translate(0 0)">
      <rect id="Rectangle_32" data-name="Rectangle 32" width="23" height="23" transform="translate(0.467 0)" fill="none"/>
      <rect id="Rectangle_33" data-name="Rectangle 33" width="23" height="23" transform="translate(0.467 0)" fill="none"/>
    </g>
    <g id="icons_Q2" data-name="icons Q2" transform="translate(1.408 1.408)">
      <path id="Path_17" data-name="Path 17" d="M14.189,5.834h4.127a5.5,5.5,0,0,1,1.885.357,3.413,3.413,0,0,1,1.936,1.936,5.5,5.5,0,0,1,.357,1.885c.051,1.07.051,1.426.051,4.127s0,3.057-.051,4.127a5.5,5.5,0,0,1-.357,1.885A3.413,3.413,0,0,1,20.2,22.086a5.5,5.5,0,0,1-1.885.357H10.063a5.5,5.5,0,0,1-1.885-.357A3.413,3.413,0,0,1,6.242,20.15a5.5,5.5,0,0,1-.357-1.885c-.051-1.07-.051-1.426-.051-4.127s0-3.057.051-4.127a5.5,5.5,0,0,1,.357-1.885A3.413,3.413,0,0,1,8.178,6.191a5.5,5.5,0,0,1,1.885-.357h4.127m0-1.834H10.012a9.119,9.119,0,0,0-2.5.459A5.1,5.1,0,0,0,5.732,5.732,4.33,4.33,0,0,0,4.56,7.515a7.387,7.387,0,0,0-.509,2.5C4,11.082,4,11.438,4,14.189s0,3.108.051,4.178a7.387,7.387,0,0,0,.509,2.5,4.33,4.33,0,0,0,1.172,1.783,4.33,4.33,0,0,0,1.783,1.172,7.387,7.387,0,0,0,2.5.509h8.355a7.387,7.387,0,0,0,2.5-.509,4.33,4.33,0,0,0,1.783-1.172,5.1,5.1,0,0,0,1.223-1.783,9.119,9.119,0,0,0,.459-2.5c.051-1.07.051-1.427.051-4.178s0-3.108-.051-4.178a9.119,9.119,0,0,0-.459-2.5,5.1,5.1,0,0,0-1.223-1.783,5.1,5.1,0,0,0-1.783-1.223,9.119,9.119,0,0,0-2.5-.459H14.189" transform="translate(-4 -4)" fill="#fff"/>
      <path id="Path_18" data-name="Path 18" d="M18.947,13.7a5.247,5.247,0,1,0,5.247,5.247A5.247,5.247,0,0,0,18.947,13.7m0,8.661a3.413,3.413,0,1,1,3.413-3.413,3.413,3.413,0,0,1-3.413,3.413" transform="translate(-8.758 -8.758)" fill="#fff"/>
      <path id="Path_19" data-name="Path 19" d="M34.745,12.123A1.223,1.223,0,1,1,33.523,10.9a1.223,1.223,0,0,1,1.223,1.223" transform="translate(-17.882 -7.385)" fill="#fff"/>
    </g>
  </g>
</svg>
